g museu
v 1.000000 -1.000000 -1.000000
v 1.000000 -1.000000 1.000000
v -1.000000 -1.000000 1.000000
v -1.000000 -1.000000 -1.000000
v 1.000000 0.500000 -1.000000
v 1.000000 0.500000 1.000000
v -1.000000 0.500000 1.000000
v -1.000000 0.500000 -1.000000
v 1.000000 -1.000000 0.000000
v -1.000000 -1.000000 -0.000000
v 1.000000 1.000000 0.000001
v -1.000000 1.000000 -0.000000
v 1.000000 1.000000 0.000001
v -1.000000 1.000000 -0.000000
v -1.000000 0.500000 -0.000000
v 1.000000 0.500000 0.000000
vn 0.0000 1.0000 0.0000
vn -1.0000 0.0000 -0.0000
vn 1.0000 0.0000 0.0000
vn -0.0000 -0.0000 1.0000
vn 0.0000 0.0000 -1.0000
vn -0.0000 -0.8944 0.4472
vn 0.0000 -0.8944 -0.4472
f 10//1 2//1 9//1
f 16//2 13//2 5//2
f 13//2 16//2 6//2
f 14//3 15//3 8//3
f 8//4 1//4 5//4
f 4//3 15//3 10//3
f 3//5 6//5 2//5
f 2//2 16//2 9//2
f 9//2 5//2 1//2
f 10//3 7//3 3//3
f 15//3 14//3 7//3
f 4//1 9//1 1//1
f 13//6 8//6 5//6
f 14//7 6//7 7//7
f 10//1 3//1 2//1
f 8//4 4//4 1//4
f 4//3 8//3 15//3
f 3//5 7//5 6//5
f 2//2 6//2 16//2
f 9//2 16//2 5//2
f 10//3 15//3 7//3
f 4//1 10//1 9//1
f 13//6 14//6 8//6
f 14//7 13//7 6//7
l 11 13
l 12 15
l 11 16
l 12 14
