g vetor
v -0.592020 0.000000 0.199552
v 0.592020 0.000000 0.199552
v -0.592020 0.000000 -0.199552
v 0.592020 0.000000 -0.199552
v -0.592020 0.000000 0.199552
v -0.592020 0.000000 -0.199552
v -0.592020 0.000000 0.000000
v 0.592020 0.000000 0.000000
v -0.592020 0.000000 0.000000
v -0.996874 0.000000 0.000000
v -0.794447 0.000000 -0.199552
v -0.794447 0.000000 0.199552
v -0.592020 0.000000 0.199552
v -0.592020 0.000000 -0.199552
v -0.794447 0.000000 -0.199552
v -0.794447 0.000000 0.199552
v -0.592020 0.000000 0.398283
v -0.592020 0.000000 -0.398283
vn 0.0000 1.0000 0.0000
vn 0.0000 0.0000 1.0000
usemtl None
s off
f 8//1 3//1 7//1
f 7//2 6//2 9//2
f 1//2 9//2 5//2
f 2//1 7//1 1//1
f 9//1 10//1 17//1
f 18//1 10//1 9//1
f 8//1 4//1 3//1
f 7//2 3//2 6//2
f 1//2 7//2 9//2
f 2//1 8//1 7//1
l 11 15
l 6 14
l 12 16
l 13 5
